<svg version="1.1"
	xmlns="http://www.w3.org/2000/svg"
	xmlns:xlink="http://www.w3.org/1999/xlink">
	<defs>
		<symbol viewBox="0 0 16 16" id="left-arrow">
			<path d="M5.3957 1.99336C5.77442 1.59138 5.75556 0.958502 5.35359 0.579771C4.95161 0.201052 4.31873 0.2199 3.94001 0.621881L0.432321 4.34496C0.0672085 4.73245 0.069772 5.33803 0.438058 5.72247L3.94575 9.384C4.32777 9.7828 4.96082 9.7964 5.35963 9.4144C5.75843 9.0323 5.77204 8.3993 5.38996 8.0005L3.503 6.03076H8.83967C9.39198 6.03076 9.83967 5.58305 9.83967 5.03076C9.83967 4.47848 9.39198 4.03076 8.83967 4.03076H3.47621L5.3957 1.99336Z"/>
		</symbol>
		<symbol viewBox="0 0 16 16" id="right-arrow">
			<path d="M5.10419 8.00674C4.72546 8.40872 4.74432 9.0416 5.1463 9.42033C5.54828 9.79905 6.18115 9.7802 6.55988 9.37822L10.0676 5.65514C10.4326 5.26765 10.4301 4.66207 10.0618 4.27763L6.55414 0.61609C6.17212 0.217278 5.53906 0.20369 5.14026 0.585748C4.74146 0.967805 4.72784 1.60083 5.10992 1.99964L6.99683 3.96934H1.66016C1.10785 3.96934 0.660156 4.41705 0.660156 4.96934C0.660156 5.52162 1.10785 5.96934 1.66016 5.96934H7.02368L5.10419 8.00674Z" />
		</symbol>
		<symbol viewBox="0 0 20 20" id="compliance">
			<path d="M15.3,17.9H4.5c-1.3,0-2.4-1.1-2.4-2.4V4.6c0-1.3,1.1-2.4,2.4-2.4h8.2c0.4,0,0.7,0.3,0.8,0.8c0,0.4-0.3,0.7-0.8,0.8H4.5
	C4,3.8,3.6,4.2,3.6,4.7l0,0v10.9c0,0.5,0.4,0.9,0.9,0.9l0,0h10.9c0.5,0,0.9-0.4,0.9-0.9l0,0V10c0-0.4,0.3-0.8,0.8-0.8
	s0.8,0.3,0.8,0.8l0,0v5.4C17.7,16.8,16.7,17.8,15.3,17.9z M10,12.2l7.5-6.9c0.3-0.3,0.3-0.8,0-1.1c-0.2-0.3-0.7-0.3-1,0l0,0l-7,6.4
	L7.7,8.8C7.4,8.6,6.9,8.6,6.6,8.9s-0.3,0.7,0,1l2.3,2.4c0.1,0.1,0.3,0.2,0.5,0.2C9.7,12.5,9.9,12.4,10,12.2z"/>
		</symbol>
		<symbol viewBox="0 0 20 20" id="notifications">
			<path d="M9 0.916626C7.475 0.916626 6.01248 1.52246 4.93414 2.60071C3.8558 3.67908 3.25 5.1416 3.25 6.66663C3.25 9.47278 2.64969 11.2218 2.09158 12.245C1.81149 12.7585 1.53793 13.0968 1.34616 13.2993C1.25009 13.4008 1.17404 13.4685 1.12729 13.5074C1.10391 13.5269 1.08783 13.5392 1.08047 13.5449C1.07889 13.546 1.07687 13.5474 1.07529 13.5485C0.806456 13.7328 0.687346 14.0707 0.782164 14.384C0.877959 14.7003 1.16949 14.9166 1.5 14.9166H16.5C16.8305 14.9166 17.122 14.7003 17.2178 14.384C17.3127 14.0706 17.1933 13.7323 16.9237 13.5479L16.9198 13.5449C16.9122 13.5392 16.8961 13.5269 16.8727 13.5074C16.8475 13.4865 16.8137 13.4569 16.7727 13.4183C16.7379 13.3855 16.698 13.3459 16.6538 13.2993C16.4621 13.0968 16.1885 12.7585 15.9084 12.245C15.3503 11.2218 14.75 9.47278 14.75 6.66663C14.75 5.1416 14.1442 3.67908 13.0659 2.60071C11.9875 1.52246 10.525 0.916626 9 0.916626ZM14.8591 13.4166H3.14084C3.22955 13.2777 3.31921 13.1268 3.40842 12.9633C4.10031 11.6948 4.75 9.69385 4.75 6.66663C4.75 5.53943 5.19775 4.4585 5.99478 3.66138C6.79181 2.86438 7.87283 2.41663 9 2.41663C10.1272 2.41663 11.2082 2.86438 12.0052 3.66138C12.8022 4.4585 13.25 5.53943 13.25 6.66663C13.25 9.69385 13.8997 11.6948 14.5916 12.9633C14.6808 13.1268 14.7705 13.2777 14.8591 13.4166ZM8.20706 17.1237C7.99924 16.7654 7.54028 16.6434 7.18197 16.8513C6.8237 17.0591 6.70172 17.5179 6.90957 17.8763C7.12201 18.2426 7.42694 18.5465 7.79379 18.7578C8.16067 18.9692 8.5766 19.0804 9 19.0804C9.42337 19.0804 9.83929 18.9692 10.2062 18.7578C10.573 18.5465 10.878 18.2426 11.0904 17.8763C11.2982 17.5179 11.1763 17.0591 10.818 16.8513C10.4597 16.6434 10.0007 16.7654 9.79291 17.1237C9.71231 17.2626 9.59665 17.3779 9.45752 17.458C9.31836 17.5382 9.16058 17.5804 9 17.5804C8.83938 17.5804 8.68161 17.5382 8.54248 17.458C8.46512 17.4135 8.39502 17.358 8.33417 17.2937C8.28555 17.2424 8.24286 17.1853 8.20706 17.1237Z"/>
		</symbol>
		<symbol viewBox="0 0 20 20" id="org">
			<path d="M10,18c-4.4,0-8-3.6-8-8s3.6-8,8-8s8,3.6,8,8S14.4,18,10,18z M10,3.4c-3.6,0-6.5,3-6.5,6.6c0,3.6,3,6.5,6.6,6.5
	s6.5-3,6.5-6.6c0,0,0,0,0,0C16.5,6.3,13.6,3.4,10,3.4z"/>
		</symbol>
		<symbol viewBox="0 0 20 20" id="group">
			<path d="M10,18c-4.4,0-8-3.6-8-8s3.6-8,8-8s8,3.6,8,8S14.4,18,10,18z M10,3.4c-3.6,0-6.5,3-6.5,6.6c0,3.6,3,6.5,6.6,6.5
	s6.5-3,6.5-6.6c0,0,0,0,0,0C16.5,6.3,13.6,3.4,10,3.4z M10,14.4c-2.5,0-4.5-2-4.5-4.5c0-2.5,2-4.5,4.5-4.5c2.5,0,4.5,2,4.5,4.5
	C14.5,12.4,12.5,14.4,10,14.4C10,14.5,10,14.5,10,14.4L10,14.4z M10,7c-1.7,0-3,1.3-3,3s1.3,3,3,3s3-1.3,3-3S11.7,7,10,7z"/>
		</symbol>
		<symbol viewBox="0 0 20 20" id="balance">
			<path d="M10,18c-4.4,0-8-3.6-8-8s3.6-8,8-8s8,3.6,8,8S14.4,18,10,18z M10,3.4c-3.6,0-6.5,3-6.5,6.6c0,3.6,3,6.5,6.6,6.5
	s6.5-3,6.5-6.6c0,0,0,0,0,0C16.5,6.3,13.6,3.4,10,3.4z M12.6,11.9c0-0.6-0.2-1.1-0.6-1.5c-0.5-0.4-1-0.8-1.5-1.1
	c-0.5-0.3-0.9-0.6-1.3-1C9,8.1,9.1,7.7,9.3,7.5c0.3-0.2,0.6-0.4,1-0.3c0.3,0,0.5,0.2,0.7,0.4c0.3,0.3,0.7,0.4,1.1,0.1
	c0.3-0.3,0.4-0.7,0.1-1.1l0,0c-0.2-0.3-0.5-0.5-0.9-0.7C11.6,5.5,11.4,5,11,4.8C10.6,4.5,10,4.7,9.8,5.1C9.8,5.3,9.7,5.4,9.7,5.5
	c0,0.1,0,0.1,0,0.2C9.2,5.8,8.7,6,8.3,6.4c-0.9,0.8-1,2.1-0.4,3c0.5,0.5,1.1,1,1.8,1.3c0.4,0.2,0.8,0.5,1.2,0.8
	c0.1,0.1,0.2,0.3,0.2,0.4c0,0.3-0.2,0.5-0.4,0.6c-0.6,0.4-1.4,0.2-1.8-0.3c-0.3-0.3-0.7-0.3-1.1-0.1c-0.3,0.3-0.3,0.7-0.1,1.1
	c0.5,0.5,1.1,0.9,1.9,1l0,0c0,0,0,0.1,0,0.1c0,0.5,0.4,0.9,0.9,0.9c0.5,0,0.9-0.4,0.9-0.9c0-0.2,0-0.3-0.1-0.4
	c0.2-0.1,0.3-0.2,0.5-0.3C12.2,13.2,12.5,12.6,12.6,11.9z"/>
		</symbol>
		<symbol viewBox="0 0 20 20" id="activity">
			<path d="M10,18c-4.4,0-8-3.6-8-8s3.6-8,8-8s8,3.6,8,8S14.4,18,10,18z M10,3.4c-3.6,0-6.5,3-6.5,6.6c0,3.6,3,6.5,6.6,6.5
	s6.5-3,6.5-6.6c0,0,0,0,0,0C16.5,6.3,13.6,3.4,10,3.4z M7,13.8c-0.2,0-0.4-0.1-0.5-0.2c-0.2-0.2-0.3-0.5-0.2-0.8L8,8.1
	c0.1-0.2,0.2-0.4,0.4-0.4l4.3-1.5c0.3-0.1,0.6,0,0.8,0.2c0.2,0.2,0.3,0.5,0.2,0.8l-1.4,4.5c-0.1,0.2-0.2,0.4-0.5,0.5l-4.5,1.6
	C7.2,13.8,7.1,13.8,7,13.8z M9.3,9l-1,2.8l2.7-1l0.9-2.7L9.3,9z"/>
		</symbol>
		<symbol viewBox="0 0 20 20" id="zone">
			<path d="M10,2c-4.4,0-8,3.6-8,8s3.6,8,8,8s8-3.6,8-8S14.4,2,10,2z M16.5,9.3h-2.8C13.6,7.4,13,5.5,12,3.8
	C14.5,4.6,16.2,6.7,16.5,9.3L16.5,9.3z M7.8,9.3c0.2-2.1,1-4,2.1-5.8H10c1.3,1.6,2.1,3.7,2.2,5.8L7.8,9.3z M12.1,10.8
	c-0.3,2-1,4-2.1,5.7c-1.3-1.6-2.1-3.6-2.2-5.7H12.1z M8,3.8C7.1,5.5,6.6,7.4,6.4,9.3H3.5C3.8,6.8,5.6,4.6,8,3.8z M3.6,10.8h2.8
	C6.4,12.8,7,14.6,8,16.2C5.6,15.4,3.8,13.3,3.6,10.8L3.6,10.8z M11.9,16.4c0.9-1.7,1.5-3.6,1.7-5.5h3C16.2,13.4,14.4,15.6,11.9,16.4
	L11.9,16.4z"/>
		</symbol>
		<symbol viewBox="0 0 20 20" id="mfs">
			<path id="path-2" class="st0" d="M3.7,5.5c0.1,0,0.2,0,0.3,0c5,2.1,8,7.2,7.4,12.5c0,0,0,0.1-0.1,0.1c0,0-0.1,0-0.1,0l0,0l-0.5-0.5
	c-0.1-0.1-0.1-0.2-0.1-0.3c0-1.1-1.2-7-8.5-9.4C2,7.9,1.9,7.8,1.9,7.7c0-0.1,0-0.2,0-0.2c0.4-0.7,0.9-1.3,1.5-1.9
	C3.5,5.6,3.6,5.5,3.7,5.5z M7.7,2.3c0.2-0.1,0.4,0,0.5,0.1c4.7,3.7,6.3,10.2,3.9,15.7c0,0-0.1,0.1-0.1,0V18v0
	c0.2-1.3,1-8.9-7.2-13.4c-0.1,0-0.1-0.1-0.2-0.2c0-0.1,0-0.2,0.1-0.2C5.6,3.3,6.6,2.7,7.7,2.3z M11.7,1.9c0.6,0,1.1,0,1.7,0.2
	c0.3,0.1,0.5,0.2,0.7,0.4c2.9,4.5,2,11.6-0.8,14.8c0,0-0.1,0.1-0.2,0.1s0-0.1,0-0.1C15.2,12,13.8,6,9.5,2.3C9.3,2.1,9.7,2,9.7,2
	C10.4,1.9,11,1.9,11.7,1.9L11.7,1.9z M16.5,5.3c0-0.2,0.2-0.2,0.2-0.2c0.4,0,0.8,0.1,1.2,0.3c0.2,0.1,0.3,0.2,0.3,0.4
	c0.1,2.3-0.5,4.6-1.8,6.5c0,0-0.1,0.1-0.1,0.1c0,0,0-0.1,0-0.1C16.9,10,17,7.6,16.5,5.3L16.5,5.3z"/>
		</symbol>
		<symbol viewBox="0 0 20 20" id="system">
			<path class="st0" d="M10.1,1.9c1.1,0,2,0.9,2,2V4c0,0.2,0.1,0.3,0.3,0.4c0.2,0.1,0.3,0,0.4-0.1l0,0c0.4-0.4,0.9-0.6,1.4-0.6
	c0.5,0,1.1,0.2,1.4,0.6c0.4,0.4,0.6,0.9,0.6,1.5c0,0.5-0.2,1.1-0.6,1.4l0,0c-0.1,0.1-0.2,0.3-0.1,0.5c0,0,0,0.1,0.1,0.1
	C15.7,7.9,15.8,8,16,8h0.1c1.1,0,2,0.9,2,2s-0.9,2-2,2h0c-0.2,0-0.3,0.1-0.4,0.2c-0.1,0.2,0,0.3,0.1,0.5l0,0
	c0.4,0.4,0.6,0.9,0.6,1.4c0,0.5-0.2,1.1-0.6,1.4c-0.4,0.4-0.9,0.6-1.4,0.6c-0.5,0-1.1-0.2-1.4-0.6l0,0c-0.1-0.1-0.3-0.2-0.5-0.1
	c-0.2,0.1-0.3,0.2-0.3,0.4v0.1c0,1.1-0.9,2-2,2s-2-0.9-2-2V16c0-0.2-0.1-0.3-0.3-0.4c-0.2-0.1-0.3,0-0.4,0.1l0,0
	c-0.4,0.4-0.9,0.6-1.5,0.6c-0.5,0-1.1-0.2-1.4-0.6c-0.4-0.4-0.6-0.9-0.6-1.4c0-0.5,0.2-1,0.6-1.3l0,0c0.1-0.1,0.2-0.3,0.1-0.5
	c-0.1-0.2-0.2-0.3-0.4-0.3H4c-1.2,0-2.1-0.9-2.1-2.1S2.8,8,4,8l0,0c0.2,0,0.3-0.1,0.4-0.3c0.1-0.2,0-0.3-0.1-0.4l0,0
	C3.9,6.9,3.7,6.3,3.7,5.8c0-0.5,0.2-1.1,0.6-1.4C4.7,4,5.2,3.8,5.7,3.8c0.5,0,1.1,0.2,1.4,0.6l0,0c0.1,0.1,0.3,0.2,0.5,0.1h0.1
	c0.1-0.1,0.2-0.2,0.2-0.3V3.9c0-1.1,0.9-2,2-2C10,1.9,10,1.9,10.1,1.9z M10.1,3.3c-0.3,0-0.6,0.3-0.7,0.6V4c0,0.7-0.4,1.4-1.1,1.7
	H8.1C7.5,5.9,6.8,5.7,6.3,5.3l0,0C6.2,5.1,6,5.1,5.8,5.1c-0.2,0-0.3,0.1-0.5,0.2C5.2,5.4,5.2,5.5,5.2,5.7c0,0.2,0.1,0.3,0.2,0.5l0,0
	c0.5,0.5,0.7,1.3,0.4,2C5.5,8.9,4.8,9.4,4.1,9.4H4c-0.4,0-0.6,0.3-0.7,0.6c0,0.4,0.3,0.7,0.7,0.7h0.1c0.7,0,1.4,0.4,1.7,1.1
	c0.3,0.7,0.1,1.5-0.4,2l0,0c-0.1,0.1-0.2,0.3-0.2,0.5c0,0.2,0.1,0.3,0.2,0.5c0.1,0.1,0.3,0.2,0.5,0.2c0.2,0,0.3-0.1,0.5-0.2l0,0
	c0.5-0.5,1.3-0.7,2-0.4C9,14.6,9.5,15.3,9.5,16v0.1c0,0.4,0.3,0.6,0.6,0.6c0.4,0,0.7-0.3,0.7-0.6v-0.2c0-0.7,0.4-1.4,1.1-1.6
	c0.7-0.3,1.5-0.1,2,0.4l0,0c0.1,0.1,0.3,0.2,0.5,0.2c0.2,0,0.3-0.1,0.5-0.2c0.1-0.1,0.2-0.3,0.2-0.5c0-0.2-0.1-0.3-0.2-0.5v-0.1
	c-0.7-0.8-0.6-1.9,0.2-2.6c0.3-0.3,0.7-0.4,1.1-0.4h0.1c0.4,0,0.6-0.3,0.6-0.6c0-0.4-0.3-0.7-0.6-0.7H16c-0.7,0-1.4-0.4-1.6-1.1
	c0-0.1,0-0.1-0.1-0.2c-0.2-0.6-0.1-1.4,0.4-1.9l0,0C14.9,6.1,15,5.9,15,5.7c0-0.2-0.1-0.3-0.2-0.5c-0.1-0.1-0.3-0.2-0.5-0.2
	c-0.2,0-0.3,0.1-0.5,0.2h-0.1c-0.5,0.5-1.3,0.7-2,0.4c-0.6-0.3-1.1-0.9-1.1-1.6V3.9C10.7,3.6,10.4,3.3,10.1,3.3z M10.1,13.2
	c-1.7,0-3.2-1.4-3.2-3.2s1.4-3.2,3.2-3.2s3.2,1.4,3.2,3.2l0,0C13.2,11.8,11.8,13.2,10.1,13.2z M10.1,8.2c-1,0-1.8,0.8-1.8,1.8
	s0.8,1.8,1.8,1.8s1.8-0.8,1.8-1.8l0,0C11.9,9,11.1,8.2,10.1,8.2C10.1,8.2,10.1,8.2,10.1,8.2z"/>
		</symbol>
		<symbol viewBox="0 0 20 20" id="more">
			<path id="path-2" class="st0" d="M10,8.5c0.8,0,1.5,0.7,1.5,1.5s-0.7,1.5-1.5,1.5l0,0c-0.8,0-1.5-0.7-1.5-1.5S9.2,8.5,10,8.5z
	 M16,8.5c0.8,0,1.5,0.7,1.5,1.5s-0.7,1.5-1.5,1.5c-0.8,0-1.5-0.7-1.5-1.5S15.2,8.5,16,8.5z M4,8.5c0.8,0,1.5,0.7,1.5,1.5
	S4.8,11.5,4,11.5S2.5,10.8,2.5,10S3.2,8.5,4,8.5z"/>
		</symbol>
		<symbol viewBox="0 0 20 20" id="dropdown">
			<polygon id="path-2" class="st0" points="10,12.2 14.5,7.8 5.5,7.8 "/>
		</symbol>
		<symbol viewBox="0 0 20 20" id="approve">
			<path d="M10,18.1c-4.5,0-8.1-3.7-8.1-8.2c0-4.5,3.7-8.1,8.2-8.1c1.3,0,2.7,0.4,3.9,1c0.4,0.2,0.5,0.6,0.3,1c-0.2,0.3-0.6,0.5-1,0.3
	C10,2.4,6,3.5,4.2,6.7s-0.6,7.2,2.6,9s7.2,0.6,9-2.6c0.6-1,0.8-2.1,0.8-3.2c0-0.4,0.3-0.8,0.8-0.8s0.8,0.3,0.8,0.8
	C18.1,14.4,14.5,18.1,10,18.1C10,18.1,10,18.1,10,18.1z M10.2,12.4l7.5-6.9c0.3-0.3,0.3-0.8,0-1.1c-0.3-0.3-0.8-0.3-1.1,0l-7,6.4
	L7.8,8.9c-0.3-0.3-0.7-0.3-1,0c-0.3,0.3-0.3,0.8,0,1c0,0,0,0,0,0l2.3,2.3c0.1,0.1,0.3,0.2,0.5,0.2C9.9,12.6,10.1,12.5,10.2,12.4z"/>
		</symbol>
		<symbol viewBox="0 0 20 20" id="info">
			<path d="M10,18c-4.4,0-8-3.6-8-8s3.6-8,8-8s8,3.6,8,8S14.4,18,10,18z M10,3.4c-3.6,0-6.5,3-6.5,6.6c0,3.6,3,6.5,6.6,6.5
	s6.5-3,6.5-6.6c0,0,0,0,0,0C16.5,6.3,13.6,3.4,10,3.4z M10,12.4c-0.6,0-1,0.4-1,1s0.4,1,1,1c0.6,0,1-0.4,1-1
	C11,12.9,10.6,12.4,10,12.4C10,12.4,10,12.4,10,12.4L10,12.4z M10.8,10.4V6.7c0-0.4-0.3-0.8-0.8-0.8S9.2,6.3,9.2,6.7v3.8
	c0,0.4,0.3,0.8,0.8,0.8S10.8,10.9,10.8,10.4L10.8,10.4z"/>
		</symbol>
		<symbol viewBox="0 0 20 20" id="error">
			<path class="st0" d="M10,2.7C6,2.7,2.7,6,2.7,10S6,17.3,10,17.3s7.3-3.3,7.3-7.3c0,0,0,0,0,0C17.3,6,14,2.7,10,2.7z M9.3,6.7
	c0.1-0.4,0.5-0.7,0.9-0.6c0.3,0.1,0.5,0.3,0.6,0.6v3.8c0,0.4-0.3,0.8-0.8,0.8c-0.4,0-0.8-0.3-0.8-0.8l0,0L9.3,6.7z M10,14.4
	c-0.6,0-1-0.4-1-1s0.4-1,1-1c0.6,0,1,0.4,1,1C11,13.9,10.6,14.4,10,14.4L10,14.4z"/>
		</symbol>
		<symbol viewBox="0 0 20 20" id="limits">
			<path d="M10,2c-4.4,0-8,3.6-8,8s3.6,8,8,8s8-3.6,8-8S14.4,2,10,2z M3.5,10c0-3.6,3-6.5,6.6-6.4c1.5,0,2.9,0.5,4,1.4
	C14,5,14,5.1,13.9,5.2l-8.8,8.7C5,14,5,14,4.9,14.1C4,13,3.5,11.5,3.5,10z M10,16.6c-1.5,0-2.9-0.5-4.1-1.4c0.1,0,0.2-0.1,0.3-0.1
	L15,6.2c0.1-0.1,0.1-0.1,0.2-0.2c2.3,2.8,1.8,6.9-1,9.2C13,16.1,11.5,16.6,10,16.6z"/>
		</symbol>
		<symbol viewBox="0 0 20 20" id="profile">
			<path d="M10,9.7C8.5,9.7,7.3,8.5,7.3,7S8.5,4.3,10,4.3s2.7,1.2,2.7,2.7c0,0,0,0,0,0C12.7,8.5,11.5,9.7,10,9.7C10,9.7,10,9.7,10,9.7z
	 M10,5.8C9.3,5.8,8.8,6.3,8.8,7c0,0.7,0.5,1.2,1.2,1.2c0.7,0,1.2-0.5,1.2-1.2c0,0,0,0,0,0C11.2,6.4,10.7,5.8,10,5.8z M14.8,14.9
	v-1.6c-0.1-1.4-1.3-2.5-2.8-2.4H7.9c-1.4-0.1-2.7,1-2.8,2.4v1.6c0,0.4,0.3,0.7,0.8,0.8c0.4,0,0.7-0.3,0.8-0.8v-1.6
	c0-0.5,0.6-0.9,1.2-0.9h4.1c0.7,0,1.2,0.4,1.2,0.9v1.6c0,0.4,0.3,0.8,0.8,0.8S14.8,15.4,14.8,14.9L14.8,14.9z"/>
		</symbol>
		<symbol viewBox="0 0 20 20" id="user">
			<path d="M10,10.6c-1.5,0-2.7-1.2-2.7-2.7c0-1.5,1.2-2.7,2.7-2.7c1.5,0,2.7,1.2,2.7,2.7c0,0,0,0,0,0C12.7,9.4,11.5,10.6,10,10.6z
	 M10,6.7c-0.7,0-1.2,0.5-1.2,1.2S9.3,9.1,10,9.1c0.7,0,1.2-0.5,1.2-1.2c0,0,0,0,0,0C11.2,7.2,10.7,6.7,10,6.7z M10,2
	c-4.4,0-8,3.6-8,8s3.6,8,8,8s8-3.6,8-8S14.4,2,10,2z M6.7,15.7v-1.5c0-0.5,0.6-0.9,1.2-0.9h4.1c0.7,0,1.2,0.4,1.2,0.9v1.5
	C11.3,16.9,8.8,16.9,6.7,15.7z M14.9,14.4v-0.2c-0.1-1.4-1.3-2.5-2.8-2.4H8c-1.4-0.1-2.7,1-2.8,2.4v0.2C2.8,11.8,3,7.6,5.6,5.2
	s6.8-2.3,9.2,0.4C17.2,8.1,17.2,11.9,14.9,14.4L14.9,14.4z"/>
		</symbol>
		<symbol viewBox="0 0 20 20" id="partners">
			<path d="M8.3,9.6c-1.5,0-2.7-1.2-2.7-2.7s1.2-2.7,2.7-2.7S11,5.4,11,6.9l0,0C11,8.4,9.8,9.6,8.3,9.6C8.3,9.6,8.3,9.6,8.3,9.6z M8.3,5.7C7.6,5.7,7,6.2,7,6.9s0.5,1.2,1.2,1.2c0.7,0,1.2-0.5,1.2-1.2c0,0,0,0,0,0C9.4,6.3,8.9,5.7,8.3,5.7z M13.1,14.9v-1.6 c-0.1-1.4-1.3-2.5-2.8-2.4H6.2c-1.4-0.1-2.7,1-2.8,2.4v1.6c0,0.4,0.3,0.7,0.8,0.8c0.4,0,0.7-0.3,0.8-0.8v-1.6c0-0.5,0.6-0.9,1.2-0.9 h4.1c0.7,0,1.2,0.4,1.2,0.9v1.6c0,0.4,0.3,0.8,0.8,0.8S13.1,15.3,13.1,14.9L13.1,14.9z M14.4,7.1c0-1.5-1.2-2.7-2.7-2.7 c-0.4,0-0.7,0.3-0.8,0.8c0,0.4,0.3,0.7,0.8,0.8c0.7,0.1,1.2,0.6,1.1,1.3c-0.1,0.6-0.5,1-1.1,1.1c-0.4,0-0.8,0.3-0.8,0.8 c0,0.4,0.3,0.8,0.8,0.8C13.2,9.8,14.4,8.6,14.4,7.1z M16.6,15v-1.6c-0.1-1.3-1.1-2.4-2.5-2.4c-0.4,0-0.8,0.3-0.8,0.7 s0.3,0.8,0.7,0.8c0.5,0,1,0.4,1.1,0.9V15c0,0.4,0.3,0.8,0.8,0.8S16.6,15.4,16.6,15z"/>
		</symbol>
		<symbol viewBox="0 0 20 20" id="reversals">
			<path d="M16.5,5c-1.3-1.7-3.2-2.8-5.3-3C9.5,1.8,8,2.1,6.5,2.8C5.4,3.6,4.3,4.4,3.3,5.4V3.1c0-0.4-0.3-0.7-0.8-0.8
	c-0.4,0-0.7,0.3-0.8,0.8v4.1c0,0.4,0.3,0.8,0.7,0.8c0,0,0,0,0,0H6c0.4,0,0.8-0.3,0.8-0.8S6.4,6.5,6,6.5H4.4c0.9-0.9,1.8-1.6,2.8-2.3
	C10,2.8,13.4,3.5,15.3,6c2.2,2.9,1.7,7-1.2,9.2s-7,1.7-9.2-1.2c-0.3-0.4-0.6-0.9-0.8-1.4c-0.1-0.4-0.6-0.6-1-0.4c0,0,0,0,0,0
	c-0.4,0.2-0.6,0.6-0.4,1c0,0,0,0,0,0c1.1,2.6,3.6,4.5,6.4,4.8c0.3,0,0.7,0.1,1,0.1c4.4,0,8-3.5,8.1-7.9C18.2,8.2,17.6,6.5,16.5,5
	L16.5,5z"/>
		</symbol>
		<symbol viewBox="0 0 20 20" id="rates">
			<path d="M11.4,13.7c-0.2,0.1-0.3,0.2-0.5,0.3c0.1,0.1,0.1,0.3,0.1,0.4c0,0.5-0.4,0.9-0.9,0.9c-0.5,0-0.9-0.4-0.9-0.9l0,0
	c0,0,0-0.1,0-0.1l0,0c-0.7-0.1-1.4-0.4-1.9-1c-0.3-0.3-0.2-0.8,0.1-1.1c0,0,0,0,0,0c0.3-0.3,0.8-0.2,1.1,0.1c0.3,0.3,0.6,0.5,1,0.5
	c0.3,0.1,0.6,0,0.9-0.2c0.2-0.2,0.3-0.4,0.4-0.6c0-0.2-0.1-0.3-0.2-0.4c-0.4-0.3-0.7-0.6-1.2-0.9c-0.7-0.3-1.2-0.8-1.8-1.3
	C7,8.4,7.2,7.1,8,6.3C8.4,6,8.9,5.8,9.4,5.7c0-0.1,0-0.1,0-0.2c0.1-0.5,0.5-0.8,1-0.8c0.4,0,0.7,0.4,0.8,0.8c0,0.1,0,0.3-0.1,0.4
	c0.3,0.2,0.6,0.4,0.9,0.7c0.2,0.3,0.1,0.8-0.2,1c-0.3,0.2-0.7,0.2-1-0.1c-0.2-0.2-0.4-0.4-0.7-0.4c-0.4,0-0.7,0.1-1,0.3
	C8.7,7.7,8.7,8.1,8.8,8.4c0.4,0.4,0.8,0.7,1.3,1c0.5,0.3,1.1,0.6,1.5,1c0.4,0.4,0.6,1,0.6,1.5C12.2,12.6,11.9,13.2,11.4,13.7z
	 M5.6,8.7c0.4,0,0.8-0.3,0.8-0.8c0-0.4-0.3-0.8-0.8-0.8H3.9C5.4,3.9,9.3,2.5,12.5,4c1.4,0.7,2.6,1.8,3.2,3.2c0.2,0.4,0.6,0.6,1,0.4
	c0,0,0,0,0,0c0.4-0.2,0.5-0.6,0.4-1c-1.8-4-6.5-5.9-10.6-4.1C5,3.2,3.8,4.4,2.9,5.8V3.9c0-0.4-0.3-0.7-0.8-0.8
	c-0.4,0-0.7,0.3-0.8,0.8v4.1c0,0.4,0.3,0.7,0.8,0.8L5.6,8.7z M17.9,10.7h-3.6c-0.4,0-0.8,0.3-0.8,0.8s0.3,0.8,0.8,0.8h1.6
	c-1.2,3.4-5,5.1-8.3,3.9c-1.9-0.7-3.4-2.2-4-4.1c-0.1-0.4-0.6-0.6-1-0.5c0,0,0,0,0,0c-0.4,0.1-0.6,0.5-0.5,0.9c0,0,0,0,0,0.1
	c1.3,4.2,5.8,6.6,10,5.3c2.2-0.7,4.1-2.3,5-4.5v1.6c0,0.4,0.3,0.8,0.8,0.8s0.8-0.3,0.8-0.8v-3.4C18.6,11,18.2,10.7,17.9,10.7
	L17.9,10.7z"/>
		</symbol>
		<symbol viewBox="0 0 20 20" id="barchart">
			<path d="M17.3,5.3h-3.6c-0.4,0-0.8,0.3-0.8,0.8s0.3,0.8,0.8,0.8h1.6l-4.9,4.4L8,9.4c-0.3-0.2-0.7-0.2-1,0l-5,4
	c-0.3,0.3-0.4,0.7-0.1,1c0.1,0.2,0.4,0.3,0.6,0.3c0.2,0,0.3-0.1,0.5-0.2l4.6-3.6l2.4,2c0.3,0.3,0.7,0.3,1,0l5.7-5.1v1.8
	c0,0.4,0.3,0.8,0.8,0.8s0.8-0.3,0.8-0.8V6.2C18.1,5.7,17.7,5.3,17.3,5.3L17.3,5.3z"/>
		</symbol>
		<symbol viewBox="0 0 20 20" id="logout">
			<path d="M14.4,17.9h-4c-0.4,0-0.8-0.3-0.8-0.8s0.3-0.8,0.8-0.8h4c0.5,0,0.9-0.4,0.9-0.9l0,0V4.6c0-0.5-0.4-0.9-0.9-0.9l0,0h-3.7
	c-0.4,0-0.7-0.3-0.8-0.8c0-0.4,0.4-0.7,0.8-0.7h3.7c1.3,0,2.4,1.1,2.4,2.4v10.9C16.8,16.8,15.8,17.9,14.4,17.9z M12.5,9.8L8.9,5.9
	c-0.3-0.3-0.8-0.3-1,0.1C7.8,6.4,7.8,6.7,7.9,7l2.4,2.6H3.9c-0.5-0.1-0.8,0.3-0.8,0.7s0.3,0.8,0.8,0.8h6.2l-2.7,2.5
	c-0.3,0.3-0.3,0.8,0,1.1c0.1,0.2,0.3,0.2,0.5,0.2s0.4-0.1,0.5-0.2l4-3.8C12.8,10.5,12.8,10.1,12.5,9.8L12.5,9.8z"/>
		</symbol>
		<symbol viewBox="0 0 20 20" id="edit">
			<path d="M15.2,18.5H4.3c-1.3,0-2.4-1.1-2.4-2.4l0,0V5.2c0-1.3,1.1-2.4,2.4-2.4h3.8c0.4,0,0.8,0.3,0.8,0.8S8.5,4.3,8.1,4.3H4.3
	c-0.5,0-0.9,0.4-0.9,0.9l0,0v10.9c0,0.5,0.4,0.9,0.9,0.9h10.9c0.5,0,0.9-0.4,0.9-0.9v-4.2c0-0.4,0.3-0.8,0.8-0.8s0.8,0.3,0.8,0.8
	v4.2C17.6,17.5,16.5,18.5,15.2,18.5z M10.7,13.9l7.1-8.1c0.3-0.3,0.3-0.7,0-1l-3.3-3.2c-0.1-0.1-0.3-0.2-0.5-0.2
	c-0.2,0-0.4,0.1-0.5,0.2L6.3,9.6c-0.2,0.1-0.2,0.3-0.2,0.5v3.4c0,0.4,0.3,0.7,0.8,0.7h3.3C10.4,14.2,10.6,14.1,10.7,13.9z M7.6,10.3
	l6.4-7l2.2,2.1l-6.4,7.3H7.6V10.3z"/>
		</symbol>
		<symbol viewBox="0 0 20 20" id="journal">
			<path d="M14.7,2.2H6.8c-1.5,0-2.8,1.2-2.8,2.8v10.2c0,1.5,1.3,2.7,2.8,2.7h7.8c0.7,0,1.2-0.6,1.2-1.2V3.4
	C15.9,2.7,15.4,2.2,14.7,2.2z M6.8,3.7h7.6v8.6H6.7c-0.4,0-0.8,0.1-1.1,0.3V4.9C5.6,4.2,6.1,3.7,6.8,3.7L6.8,3.7z M5.8,14.8
	c0-0.5,0.4-1,0.9-1h7.5v2.4H7.1C6.4,16.1,5.8,15.5,5.8,14.8L5.8,14.8z"/>
		</symbol>
		<symbol viewBox="0 0 20 20" id="calendar">
			<path d="M15.1,3.8H14V3.1c0-0.4-0.3-0.8-0.8-0.8s-0.8,0.3-0.8,0.8v0.8H7.5V3.1c0-0.5-0.3-0.8-0.7-0.8C6.3,2.3,6,2.6,6,3.1v0.8H4.8
	C3.2,3.8,2,5,2,6.5v8.4c0,1.5,1.2,2.8,2.8,2.8h10.3c1.5,0,2.8-1.2,2.8-2.8l0,0V6.5C17.9,5,16.6,3.8,15.1,3.8z M4.8,5.3H6v0.8
	c0,0.4,0.3,0.8,0.8,0.8s0.8-0.3,0.8-0.8V5.3h4.9v0.8c0,0.4,0.3,0.8,0.8,0.8s0.8-0.3,0.8-0.8V5.3H15c0.7,0,1.3,0.5,1.3,1.2l0,0v1.2
	H3.5V6.5C3.5,5.9,4.1,5.3,4.8,5.3z M15.1,16.2H4.8c-0.7,0-1.2-0.6-1.2-1.2V9.2h12.8v5.7C16.4,15.6,15.8,16.2,15.1,16.2z"/>
		</symbol>
		<symbol viewBox="0 0 20 20" id="file">
			<path d="M11.2,2.2H6.8C5.2,2.2,4,3.4,4,4.9v10.2c0,1.5,1.3,2.7,2.8,2.7h6.3c1.5,0,2.7-1.2,2.8-2.7V7.3L11.2,2.2z M11.6,4.9L14,7.7
	h-2.4V4.9z M13.1,16.4H6.8c-0.7,0-1.2-0.5-1.2-1.2V4.9c0-0.7,0.6-1.2,1.2-1.2h3.3v4.7c0,0.4,0.3,0.7,0.7,0.7l0,0h3.5v6
	C14.4,15.9,13.9,16.4,13.1,16.4z"/>
		</symbol>
		<symbol viewBox="0 0 20 20" id="filter">
			<path d="M11.4,16.7c-0.1,0-0.2,0-0.3-0.1l-2.7-1.2c-0.3-0.1-0.4-0.4-0.4-0.7v-4.2l-5-5.9C2.7,4.3,2.7,4,2.8,3.8
	c0.1-0.3,0.4-0.4,0.7-0.4h13c0.3,0,0.6,0.2,0.7,0.4c0.1,0.3,0.1,0.6-0.1,0.8l-4.7,5.8L12.1,16c0,0.2-0.2,0.5-0.4,0.6
	C11.6,16.7,11.5,16.7,11.4,16.7z M9.4,14.2l1.2,0.6l0.2-4.8c0-0.2,0.1-0.3,0.2-0.4L15,4.8H5.1l4.1,4.9c0.1,0.1,0.2,0.3,0.2,0.5V14.2
	z"/>
		</symbol>
		<symbol viewBox="0 0 20 20" id="laundering">
			<path d="M15.8,17.4H4.2c-1.3,0-2.4-1.1-2.4-2.4c0-0.4,0.1-0.9,0.3-1.2l5.8-10C8.3,3,9.1,2.6,10,2.5c0.9,0,1.7,0.5,2.1,1.2l5.8,10
	c0.7,1.2,0.3,2.7-0.9,3.3C16.6,17.3,16.2,17.5,15.8,17.4z M10,4c-0.3,0-0.6,0.2-0.8,0.5l-5.8,10c-0.2,0.3-0.2,0.7,0,0.9
	C3.6,15.8,3.9,16,4.2,16h11.6c0.5,0,0.9-0.4,1-0.9c0-0.2,0-0.3-0.1-0.5l-5.8-10C10.6,4.3,10.3,4.1,10,4z M10,12.8c-0.6,0-1,0.4-1,1
	s0.4,1,1,1s1-0.4,1-1S10.5,12.8,10,12.8z M10.7,11.5V7.8c0-0.4-0.3-0.8-0.8-0.8c-0.4,0-0.8,0.3-0.8,0.8v3.7c0,0.4,0.3,0.8,0.8,0.8
	C10.3,12.3,10.7,12,10.7,11.5z"/>
		</symbol>
		<symbol viewBox="0 0 20 20" id="warning">
			<path class="st0" d="M17.3,14.2l-2.9-5l-2.8-5C11.1,3.3,10.1,3,9.2,3.5C8.9,3.6,8.7,3.9,8.5,4.2l-2.9,5l-2.9,5
	C2.3,15,2.5,16,3.3,16.5c0.3,0.2,0.6,0.2,0.9,0.2h11.6c0.9,0,1.7-0.8,1.7-1.7C17.5,14.7,17.4,14.5,17.3,14.2z M9.2,7.8
	c0-0.4,0.3-0.8,0.8-0.8c0.4,0,0.8,0.3,0.8,0.8v3.2c0,0.4-0.3,0.8-0.8,0.8c-0.4,0-0.8-0.3-0.8-0.8l0,0V7.8z M10,14.8
	c-0.6,0-1-0.4-1-1c0-0.6,0.4-1,1-1c0.6,0,1,0.4,1,1l0,0C11,14.3,10.6,14.8,10,14.8z"/>
		</symbol>
		<symbol viewBox="0 0 20 20" id="product">
			<path d="M16.9,5.5L16.9,5.5c0-0.1,0-0.2-0.1-0.3l0,0c-0.1-0.1-0.2-0.2-0.3-0.3l0,0l-5-2.8c-0.8-0.5-1.9-0.5-2.8,0L3.5,5.3
	c-0.1,0-0.1,0.1-0.2,0.2c0,0-0.1,0.1-0.1,0.1C3.2,5.7,3.1,5.8,3.1,5.9c0,0,0,0,0,0.1l0,0v7.1c0,0.8,0.4,1.6,1.2,2l5.3,3.1
	c0.1,0.1,0.2,0.1,0.4,0.1c0,0,0.1,0,0.1,0h0.1c0.1,0,0.3,0,0.4-0.1l5.1-3.4c0.7-0.5,1.2-1.3,1.2-2.1L16.9,5.5L16.9,5.5L16.9,5.5z
	 M9.9,8.6L5.3,6l1.9-1.2l4.4,2.7L9.9,8.6z M9.6,3.4c0.4-0.2,0.9-0.2,1.2,0l3.9,2.2l-1.6,1L8.7,3.9L9.6,3.4z M5.1,13.8
	c-0.2-0.1-0.4-0.4-0.4-0.7V7.3l4.2,2.5l0.2,0.1v6.3L5.1,13.8z M15.4,12.6c0,0.4-0.2,0.7-0.5,0.9L11,16.1V9.9L15.4,7V12.6z"/>
		</symbol>
		<symbol viewBox="0 0 20 20" id="bin-small">
			<path d="M17,4.7h-2.9c0-0.1,0-0.3,0-0.4V3c0-1-0.8-1.9-1.9-1.9H8.1C7,1.1,6.2,2,6.2,3l0,0v1.3c0,0.1,0,0.3,0,0.4H3
	C2.6,4.7,2.3,5,2.3,5.5S2.6,6.2,3,6.2h0.6v10.4c0,1.2,1,2.2,2.2,2.2c0,0,0,0,0,0h8.7c1.2,0,2.2-1,2.2-2.2V6.2H17
	c0.4,0,0.8-0.3,0.8-0.8S17.4,4.7,17,4.7z M7.7,4.3V3c0-0.2,0.2-0.4,0.4-0.4h4.2c0.2,0,0.4,0.2,0.4,0.4v1.3c0,0.2-0.2,0.4-0.4,0.4
	H8.1C7.8,4.7,7.7,4.5,7.7,4.3C7.7,4.3,7.7,4.3,7.7,4.3z M15.3,16.6c0,0.4-0.3,0.7-0.7,0.7l0,0H5.8c-0.4,0-0.7-0.3-0.7-0.7V6.2h10.2
	V16.6z M9.1,9.1v5.2c0,0.4-0.3,0.8-0.8,0.8c-0.4,0-0.8-0.3-0.8-0.8V9.1c0-0.4,0.3-0.8,0.8-0.8C8.7,8.4,9.1,8.7,9.1,9.1z M12.1,8.4
	c0.4,0,0.7,0.3,0.8,0.8v5.2c0,0.4-0.3,0.8-0.8,0.8s-0.8-0.3-0.8-0.8V9.1C11.3,8.8,11.6,8.4,12.1,8.4L12.1,8.4z"/>
		</symbol>
		<symbol viewBox="0 0 20 20" id="bin">
			<path d="M4.7,18.8c-1.3,0-2.4-1.1-2.4-2.4V6.3H1.5c-0.4,0-0.8-0.3-0.8-0.8s0.3-0.8,0.8-0.8h4.8c0-0.1,0-0.3,0-0.4V3.1
	c0-0.5,0.2-1,0.5-1.3c0.4-0.4,0.9-0.6,1.4-0.6h4.2c1,0,1.9,0.8,1.9,1.9c0,0,0,0,0,0v1.3c0,0.1,0,0.3,0,0.4h4.3
	c0.4,0,0.7,0.3,0.8,0.7c0,0.4-0.3,0.8-0.8,0.8h-0.8v10.2c0,1.3-1.1,2.4-2.4,2.4l0,0L4.7,18.8z M15.4,18L15.4,18z M3.9,6.3v10.1
	c0,0.2,0.1,0.5,0.3,0.6c0.2,0.2,0.4,0.3,0.6,0.2h0h10.6l0,0c0.5,0,0.9-0.4,0.9-0.9V6.3L3.9,6.3z M12.3,2.7H8.1c-0.1,0-0.2,0-0.3,0.1
	C7.7,2.9,7.7,3,7.7,3.1v1.3c0,0.1,0,0.2,0.1,0.3C7.9,4.7,8,4.8,8.1,4.8h4.3c0.1,0,0.2,0,0.3-0.1c0.1-0.1,0.1-0.2,0.1-0.3V3.1
	c0-0.1,0-0.2-0.1-0.3C12.5,2.7,12.4,2.7,12.3,2.7z M10.2,15.2c-0.4,0-0.7-0.3-0.8-0.8V9.2c0-0.4,0.3-0.7,0.7-0.8l0,0
	c0.4,0,0.7,0.3,0.8,0.8v5.2C11,14.8,10.6,15.2,10.2,15.2L10.2,15.2z M7.7,15.2c-0.4,0-0.7-0.3-0.8-0.8l0-5.2c0-0.4,0.3-0.7,0.8-0.8
	l0,0c0.4,0,0.8,0.3,0.8,0.8v5.2C8.4,14.8,8,15.2,7.7,15.2L7.7,15.2z M12.7,15.2c-0.4,0-0.7-0.3-0.8-0.8V9.2c0-0.4,0.3-0.8,0.7-0.8
	c0,0,0,0,0,0l0,0c0.4,0,0.7,0.3,0.8,0.7c0,0,0,0,0,0v5.2C13.5,14.8,13.2,15.2,12.7,15.2C12.8,15.2,12.7,15.2,12.7,15.2z"/>
		</symbol>
		<symbol viewBox="0 0 20 20" id="send">
			<path d="M15.8,4.4H4.2C3,4.4,2,5.4,2,6.6c0,0,0,0,0,0v6.8c0,1.2,1,2.2,2.2,2.2h11.6c1.2,0,2.2-1,2.2-2.2V6.6C18,5.4,17,4.4,15.8,4.4
	z M4.2,5.9h11.6c0.2,0,0.4,0.1,0.6,0.3c-0.1,0-0.2,0-0.2,0.1L10,9.7L3.8,6.2l-0.2,0C3.8,6,4,5.9,4.2,5.9z M15.8,14.1H4.2
	c-0.4,0-0.7-0.3-0.7-0.7c0,0,0,0,0,0V7.8l6.1,3.5c0.1,0.1,0.2,0.1,0.4,0.1c0.1,0,0.3,0,0.4-0.1l6.2-3.5v5.7
	C16.6,13.8,16.2,14.1,15.8,14.1C15.8,14.1,15.8,14.1,15.8,14.1z"/>
		</symbol>
		<symbol viewBox="0 0 20 20" id="home">
			<path d="M15.9,18.3h-3.8c-0.4,0-0.8-0.3-0.8-0.8v-6.3h-3v6.3c0,0.4-0.3,0.7-0.8,0.8H4.1c-1.2,0-2.2-1-2.2-2.2V7.5
	c0-0.2,0.1-0.5,0.3-0.6l7.3-5c0.3-0.2,0.6-0.2,0.9,0l7.3,5c0.2,0.1,0.3,0.4,0.3,0.6v8.6C18,17.3,17.1,18.3,15.9,18.3z M12.9,16.8h3
	c0.4,0,0.7-0.3,0.7-0.7V7.9L10,3.4L3.4,7.9v8.2c0,0.4,0.3,0.7,0.7,0.7h2.8v-6.3c0-0.4,0.3-0.8,0.8-0.8h4.5c0.4,0,0.8,0.3,0.8,0.8
	L12.9,16.8z"/>
		</symbol>
		<symbol viewBox="0 0 20 20" id="cancel">
			<path d="M15.3,14.1L11,9.9l4.2-4.3c0.2-0.4,0.1-0.8-0.2-1c-0.3-0.2-0.6-0.1-0.8,0L9.9,8.9L5.6,4.7c-0.4-0.2-0.8-0.1-1,0.2
	c-0.2,0.3-0.1,0.6,0,0.8L8.9,10l-4.2,4.4c-0.2,0.3-0.2,0.7,0,1c0.1,0.1,0.3,0.2,0.5,0.2c0.2,0,0.4-0.1,0.5-0.2L10,11l4.4,4.2
	c0.1,0.1,0.3,0.2,0.5,0.2c0.2,0,0.4-0.1,0.5-0.2C15.6,14.9,15.6,14.4,15.3,14.1C15.3,14.1,15.3,14.1,15.3,14.1z"/>
		</symbol>
		<symbol viewBox="0 0 20 20" id="search">
			<path d="M18.1,17.5L13,12c2.3-2.7,2.1-6.7-0.6-9.1S5.7,0.8,3.3,3.5s-2.1,6.7,0.6,9.1c2.2,2,5.5,2.1,8,0.4l5.1,5.5
	c0.1,0.2,0.3,0.2,0.5,0.2c0.2,0,0.4-0.1,0.5-0.2C18.3,18.2,18.4,17.8,18.1,17.5z M3.3,7.8C3.3,5.1,5.5,3,8.1,3
	c2.7,0,4.9,2.2,4.9,4.9c0,2.7-2.2,4.9-4.9,4.9c0,0,0,0,0,0C5.5,12.7,3.3,10.5,3.3,7.8z"/>
		</symbol>
		<symbol viewBox="0 0 20 20" id="plus">
			<path d="M16.1,9.2h-5.4V4.5c0-0.4-0.3-0.8-0.8-0.8c-0.4,0-0.8,0.3-0.8,0.8v4.7H3.9c-0.4,0-0.8,0.3-0.8,0.8s0.3,0.8,0.8,0.8h5.4v4.7 c0,0.4,0.3,0.7,0.8,0.7c0.4,0,0.8-0.3,0.8-0.7v-4.7h5.4c0.4,0,0.8-0.3,0.8-0.8S16.5,9.3,16.1,9.2L16.1,9.2z"/>
		</symbol>
		<symbol viewBox="0 0 20 20" id="eye">
			<path class="st0" d="M18.1,10.5l0.1-0.3l-0.1-0.3c-1.4-3.6-4.9-6-8.8-5.8C6.1,4.4,3.2,6.5,1.9,9.6L1.7,9.9l0.1,0.3 c1.3,3.1,4.2,5.3,7.5,5.7H10C13.6,15.8,16.7,13.7,18.1,10.5z M9.5,5.6c3.1-0.1,5.9,1.7,7.1,4.6c-1.3,2.7-4.1,4.4-7.1,4.2 c-2.7-0.3-5-2-6.1-4.5C4.5,7.5,6.8,5.9,9.5,5.6z M12.9,10c0-1.6-1.3-2.9-2.9-2.9S7.1,8.4,7.1,10s1.3,2.9,2.9,2.9l0,0 C11.6,12.9,12.9,11.6,12.9,10C12.9,10,12.9,10,12.9,10z M11.4,10c0,0.8-0.6,1.4-1.4,1.4c-0.8,0-1.4-0.6-1.4-1.4 c0-0.8,0.6-1.4,1.4-1.4c0,0,0,0,0,0C10.7,8.7,11.4,9.3,11.4,10z"/>
		</symbol>
		<symbol viewBox="0 0 20 20" id="eye-off">
			<path d="M18.3,10.8l-0.1,0.3c-0.4,0.8-0.8,1.5-1.4,2.2c-0.1,0.2-0.3,0.3-0.6,0.2c-0.4,0-0.7-0.3-0.8-0.7c0-0.2,0.1-0.4,0.2-0.5
	c0.4-0.5,0.7-1,1-1.5c-1.2-2.9-4-4.7-7.1-4.6c-0.4,0-0.8-0.3-0.8-0.7c0-0.4,0.3-0.8,0.7-0.8c3.9-0.1,7.4,2.2,8.8,5.8L18.3,10.8z
	 M17.1,15.7c0.3,0.3,0.3,0.8,0,1.1C17,16.9,16.8,17,16.6,17c-0.2,0-0.4-0.1-0.5-0.2l-1.6-1.6c-1.3,0.8-2.9,1.3-4.4,1.3H9.4
	C6,16.2,3.1,14,1.9,10.8l-0.1-0.3l0.1-0.3c0.7-1.7,1.9-3.1,3.5-4.1L3.5,4.3C3.3,4,3.3,3.5,3.6,3.2c0.3-0.3,0.7-0.3,1,0L17.1,15.7z
	 M8.8,10.4c0,0.8,0.6,1.4,1.4,1.3c0.2,0,0.4-0.1,0.6-0.2L9,9.7C8.9,9.9,8.8,10.2,8.8,10.4z M13.4,14.1l-1.4-1.4c-1.2,1-3,0.7-4-0.5
	c-0.4-0.5-0.6-1.1-0.6-1.8c0-0.6,0.2-1.2,0.6-1.7L6.4,7.2c-1.3,0.8-2.4,2-3.1,3.4C4.5,13,6.8,14.7,9.5,15
	C10.9,15.1,12.2,14.8,13.4,14.1z"/>
		</symbol>
		<symbol viewBox="0 0 20 20" id="chart">
			<path d="M12,14.9L12,14.9c-0.3,0-0.6-0.2-0.7-0.4l-3.2-7l-1.9,3.1c-0.1,0.2-0.4,0.4-0.7,0.4l-3.1-0.1c-0.4,0-0.8-0.3-0.8-0.8
	c0-0.4,0.3-0.8,0.8-0.8l0,0l2.7,0.1l2.4-3.9C7.7,5.2,8,5.1,8.3,5.1c0.3,0,0.5,0.2,0.6,0.4l3.2,7l1.9-2.9c0.1-0.2,0.4-0.3,0.6-0.3
	h2.8c0.4,0,0.8,0.3,0.8,0.8c0,0.4-0.3,0.8-0.8,0.8h-2.4l-2.4,3.7C12.5,14.8,12.3,14.9,12,14.9z"/>
		</symbol>
		<symbol viewBox="0 0 20 20" id="help">
			<path d="M10,18c-4.4,0-8-3.6-8-8s3.6-8,8-8s8,3.6,8,8S14.4,18,10,18z M10,3.4c-3.6,0-6.5,3-6.5,6.6c0,3.6,3,6.5,6.6,6.5
	s6.5-3,6.5-6.6c0,0,0,0,0,0C16.5,6.3,13.6,3.4,10,3.4z M8.9,14c0,0.6,0.4,1,1,1c0.6,0,1-0.4,1-1s-0.4-1-1-1C9.3,13,8.9,13.5,8.9,14z
	 M13.2,8c0-1.7-1.3-3-3-3C8.9,5,7.8,5.8,7.4,7c-0.2,0.4,0,0.8,0.4,1c0,0,0,0,0.1,0c0.4,0.2,0.8,0,1-0.4c0,0,0,0,0-0.1
	c0.3-0.8,1.1-1.2,1.9-0.9c0.6,0.2,1,0.8,1,1.4c0,0.8-1.2,1.3-1.7,1.5H10c-0.4,0-0.7,0.3-0.8,0.8v1.1c0,0.4,0.3,0.8,0.8,0.8
	s0.8-0.3,0.8-0.8v-0.5C11.3,10.7,13.2,9.8,13.2,8z"/>
		</symbol>
		<symbol viewBox="0 0 20 20" id="transactions">
			<path d="M17.3,8.8H2.7C2.4,8.8,2.1,8.6,2,8.3C1.9,8,2,7.7,2.2,7.5l4.3-3.6C6.8,3.6,7.3,3.7,7.6,4C7.9,4.3,7.8,4.8,7.5,5L4.8,7.3
	h12.5c0.4,0,0.8,0.3,0.8,0.7C18.1,8.5,17.7,8.8,17.3,8.8C17.3,8.8,17.3,8.8,17.3,8.8z M13.5,16.1l4.3-3.6c0.3-0.3,0.3-0.8,0.1-1.1
	c-0.1-0.2-0.3-0.3-0.5-0.3H2.7c-0.4,0-0.8,0.3-0.8,0.8c0,0.4,0.3,0.8,0.8,0.8h12.5L12.5,15c-0.3,0.3-0.4,0.7-0.1,1.1
	c0.1,0.2,0.4,0.3,0.6,0.3C13.2,16.3,13.4,16.2,13.5,16.1z"/>
		</symbol>
		<symbol viewBox="0 0 20 20" id="card">
			<path d="M16.8,4.7H3.2c-1.1,0-2,0.9-2,2v6.6c0,1.1,0.9,2,2,2h13.5c1.1,0,2-0.9,2-2V6.7C18.8,5.6,17.9,4.7,16.8,4.7z M3.2,6.2h13.5
	c0.3,0,0.5,0.2,0.5,0.5v1.9H2.7V6.7C2.7,6.4,3,6.2,3.2,6.2z M16.8,13.8H3.2c-0.3,0-0.5-0.2-0.5-0.5l0,0v-3.3h14.5v3.3
	C17.2,13.6,17,13.8,16.8,13.8z"/>
		</symbol>
		<symbol viewBox="0 0 20 20" id="reports">
			<path d="M14.2,18.5c-0.4,0-0.7-0.3-0.8-0.8V7.6c0-0.4,0.3-0.8,0.8-0.8s0.8,0.3,0.8,0.8v10.1C14.9,18.2,14.6,18.5,14.2,18.5z
	 M6.6,17.8v-6.5c0-0.4-0.3-0.7-0.8-0.8c-0.4,0-0.7,0.3-0.8,0.8v6.5c0,0.4,0.3,0.7,0.8,0.7C6.2,18.5,6.5,18.2,6.6,17.8z M10.8,17.8
	V2.2c0-0.4-0.3-0.8-0.8-0.8S9.2,1.8,9.2,2.2v15.5c0,0.4,0.3,0.8,0.8,0.8S10.8,18.2,10.8,17.8z"/>
		</symbol>
		<symbol viewBox="0 0 20 20" id="brands">
			<path d="M10.2,18.3c-0.7,0-1.3-0.3-1.8-0.7l-6.2-6c-0.1-0.1-0.2-0.3-0.2-0.5L1.6,2.5c0-0.2,0.1-0.4,0.2-0.6C2,1.8,2.2,1.7,2.4,1.7
	l8.9,0.2c0.2,0,0.4,0.1,0.5,0.2l5.9,6.1c0.9,1,0.9,2.5,0,3.5l-5.5,5.7C11.6,18,11,18.3,10.2,18.3z M3.4,10.7l6,5.8
	c0.5,0.4,1.2,0.4,1.6,0l5.5-5.8c0.4-0.4,0.4-1,0-1.4c0,0,0,0,0,0l-5.7-5.9L3.1,3.2L3.4,10.7z M7.1,6.4c-0.5,0-0.8,0.4-0.8,0.8l0,0
	C6.3,7.6,6.7,8,7.1,8c0.4,0,0.8-0.4,0.8-0.8C7.9,6.7,7.6,6.4,7.1,6.4C7.1,6.3,7.1,6.3,7.1,6.4L7.1,6.4z"/>
		</symbol>
		<symbol viewBox="0 0 20 20" id="arrow-down">
			<path d="M16.7,9.9c-0.4-0.4-1-0.4-1.4,0l-4.3,4V3.8c0-0.6-0.4-1-1-1c-0.6,0-1,0.4-1,1v10.2L4.7,9.8c-0.4-0.4-1-0.4-1.4,0
	c0,0,0,0,0,0c-0.4,0.4-0.4,1,0,1.4l6.1,5.7c0.4,0.4,1,0.4,1.4,0l5.9-5.7C17.1,10.9,17.1,10.3,16.7,9.9z"/>
		</symbol>
		<symbol viewBox="0 0 20 20" id="arrow-up">
			<path d="M16.7,8.8l-5.9-5.7c-0.4-0.4-1-0.4-1.4,0L3.3,8.8c-0.4,0.4-0.4,1,0,1.4l0,0c0.4,0.4,1,0.4,1.4,0L9,6v10.2c0,0.6,0.4,1,1,1
	s1-0.4,1-1V6.1l4.3,4c0.4,0.4,1,0.4,1.4,0C17.1,9.7,17.1,9.1,16.7,8.8z"/>
		</symbol>
		<symbol viewBox="0 0 20 20" id="arrow-left">
			<path d="M16.2,9H6.1l4.1-4.4c0.4-0.4,0.4-1,0-1.4c0,0,0,0,0,0c-0.4-0.4-1-0.3-1.4,0.1c0,0,0,0,0,0L3,9.4c-0.4,0.4-0.4,1,0,1.4l5.7,6
	C8.9,16.9,9.2,17,9.5,17c0.6,0,1-0.5,1-1c0-0.3-0.1-0.5-0.3-0.7L6.1,11h10.1c0.6,0,1-0.4,1-1C17.2,9.5,16.8,9,16.2,9z"/>
		</symbol>
		<symbol viewBox="0 0 20 20" id="arrow-right">
			<path d="M2.7,10c0,0.6,0.4,1,1,1h10.1l-4.1,4.3c-0.2,0.2-0.3,0.4-0.3,0.7c0,0.5,0.4,1,1,1c0.3,0,0.6-0.1,0.8-0.2l5.7-6
	c0.4-0.4,0.4-1,0-1.4l-5.8-6.1l0,0c-0.4-0.4-1-0.5-1.4-0.1l0,0c-0.4,0.4-0.4,1,0,1.4L13.9,9H3.7C3.2,9,2.7,9.5,2.7,10z"/>
		</symbol>
		<symbol viewBox="0 0 20 20" id="arrow-down-small">
			<path d="M13.2,10.5c-0.3-0.2-0.7-0.2-1,0.1L10.8,12V5.9c0-0.4-0.3-0.8-0.8-0.8c-0.4,0-0.8,0.3-0.8,0.8v6.3l-1.4-1.6
	c-0.3-0.3-0.7-0.3-1.1-0.1c-0.3,0.3-0.3,0.7-0.1,1.1l2.8,3.1c0.1,0.2,0.3,0.3,0.6,0.2l0,0c0.2,0,0.4-0.1,0.6-0.3l2.6-3.1
	C13.5,11.2,13.5,10.7,13.2,10.5C13.2,10.5,13.2,10.5,13.2,10.5z"/>
		</symbol>
		<symbol viewBox="0 0 20 20" id="chevron-down">
			<path d="M10.1,13.4l-5.4-5c-0.4-0.4-0.4-1,0-1.4c0.4-0.4,1-0.4,1.4,0l4,3.7L14,6.9C14.4,6.5,15,6.6,15.4,7c0.3,0.4,0.3,0.9,0,1.3
	L10.1,13.4z"/>
		</symbol>
		<symbol viewBox="0 0 20 20" id="chevron-up">
			<path d="M14.6,13.4c-0.3,0-0.5-0.1-0.7-0.3l-4-3.7l-3.9,3.7c-0.4,0.4-1,0.4-1.4,0c-0.4-0.4-0.4-1,0-1.4c0,0,0,0,0,0l5.2-5l5.4,5
	c0.4,0.4,0.4,1,0.1,1.4C15.2,13.2,14.9,13.4,14.6,13.4z"/>
		</symbol>
		<symbol viewBox="0 0 20 20" id="chevron-left">
			<path d="M12.4,15.6c-0.3,0-0.5-0.1-0.7-0.3l-5-5.2l5-5.4c0.4-0.4,1-0.4,1.4,0c0.4,0.4,0.4,1,0.1,1.4l-3.7,4l3.7,3.8
	c0.4,0.4,0.4,1,0,1.4C12.9,15.5,12.6,15.6,12.4,15.6z"/>
		</symbol>
		<symbol viewBox="0 0 20 20" id="chevron-right">
			<path d="M7.6,15.6c-0.3,0-0.5-0.1-0.7-0.2c-0.4-0.4-0.4-1,0-1.4l3.7-3.9l-3.7-4c-0.4-0.4-0.4-1,0-1.4c0,0,0,0,0,0 c0.4-0.4,1-0.4,1.4,0l5,5.4l-5,5.2C8.2,15.5,7.9,15.6,7.6,15.6z"/>
		</symbol>
		<symbol viewBox="0 0 20 20" id="back">
			<path d="M10,19.8c-5.4,0-9.8-4.4-9.8-9.8S4.6,0.2,10,0.2s9.8,4.4,9.8,9.8l0,0C19.8,15.4,15.4,19.8,10,19.8z M10,1.7
	c-4.6,0-8.3,3.7-8.3,8.3s3.7,8.3,8.3,8.3s8.3-3.7,8.3-8.3C18.3,5.4,14.6,1.7,10,1.7z M11.5,14.1c0.3-0.3,0.3-0.8,0-1.1l-2.6-2.8
	l2.7-2.9c0.3-0.3,0.3-0.8,0-1.1c-0.3-0.3-0.8-0.3-1,0c0,0,0,0,0,0l-3.7,3.9l3.6,3.8c0.1,0.2,0.3,0.2,0.5,0.2
	C11.2,14.3,11.3,14.2,11.5,14.1z"/>
		</symbol>
		<symbol viewBox="0 0 20 20" id="2fa">
			<path d="M17,7.8v-1c0-1.5-1-2.7-2.5-3c0-1.5-1.2-2.7-2.7-2.7H4.6c-1.5,0-2.8,1.2-2.8,2.8v12.2c0,1.5,1.2,2.8,2.8,2.8h7.2
	c1.5,0,2.7-1.3,2.7-2.8v-2.7h2c0.9,0,1.6-0.7,1.6-1.6c0,0,0,0,0,0V9.3C18.2,8.6,17.7,8,17,7.8z M15.5,6.8v0.9h-3.1V6.8
	c0.1-0.8,0.8-1.5,1.6-1.4C14.9,5.5,15.4,6.1,15.5,6.8z M11.8,17.4H4.6c-0.7,0-1.3-0.6-1.3-1.2c0,0,0,0,0,0v-0.3H13v0.3
	C13,16.8,12.5,17.4,11.8,17.4z M13.1,14.4H3.3V3.9c0-0.7,0.6-1.2,1.2-1.2h7.2c0.7,0,1.2,0.6,1.2,1.2v0.1C11.8,4.3,11,5.5,11,6.8v0.9
	h-0.1c-0.9,0-1.6,0.7-1.6,1.6v2.6c0,0.9,0.7,1.6,1.6,1.6c0,0,0,0,0,0H13L13.1,14.4z M16.7,11.9C16.7,12,16.7,12,16.7,11.9L10.8,12
	c0,0-0.1,0-0.1-0.1V9.3c0,0,0-0.1,0.1-0.1h5.7c0,0,0.1,0,0.1,0.1L16.7,11.9z"/>
		</symbol>
		<symbol viewBox="0 0 20 20" id="pointer">
			<path d="M13.2,19.7c-2,0-7.5-0.7-11.7-7.3c-0.1-0.2-0.2-0.4-0.1-0.7C1.7,11,2.3,10.5,3,10.3c1.3-0.2,2.6,0.1,3.7,0.9V2.3
	c0,0,0-0.1,0-0.1c0.2-1,1-1.8,2.1-1.9c0.9,0,1.7,0.6,2.1,1.4c0,0.1,0,0.1,0.1,0.2l0.6,4.9c1.4,0.3,4.8,1.2,6.6,2.9
	c0.1,0.1,0.2,0.2,0.2,0.4c0,0.2,1,4.5-0.9,7.3c-0.8,1.2-2.1,2-3.5,2.3C13.7,19.7,13.5,19.7,13.2,19.7z M3,12
	c4.6,6.9,10.7,6.2,10.8,6.2c1-0.2,1.9-0.7,2.5-1.6c1.3-2,0.9-5.1,0.7-5.9c-2-1.6-6.2-2.4-6.2-2.4c-0.3-0.1-0.6-0.3-0.6-0.7L9.5,2.2
	C9.3,2,9,1.8,8.7,1.8c-0.3,0-0.5,0.4-0.5,0.5v10.4c0,0.3-0.2,0.6-0.4,0.7c-0.3,0.1-0.6,0.1-0.8-0.1c-2-1.6-3.1-1.7-3.5-1.6
	C3.3,11.8,3.1,11.9,3,12z"/>
		</symbol>
		<symbol viewBox="0 0 20 20" id="asterisk">
			<polygon points="16.4,10.5 16.2,7.2 11,8.3 11.6,4 8.3,4 8.9,8.4 3.6,7.7 3.6,10.9 8.2,10.3 5.1,14.5 8,16 9.8,11.2 11.9,15.8 
	14.7,14 11.4,10.1 "/>
		</symbol>
		<symbol viewBox="0 0 20 20" id="balance-2">
			<path d="M19.7,14.3l-3.5-6.1c-0.1-0.2-0.4-0.4-0.7-0.4h-0.1h-0.1l-3.6-0.3c-0.2-0.6-0.6-1-1.1-1.3V2.2c0-0.4-0.3-0.8-0.8-0.8
	S9.1,1.8,9.1,2.2v4C8.7,6.4,8.4,6.6,8.1,7L4.2,6.8c-0.2,0-0.4,0-0.5,0.2C3.5,7,3.3,7.1,3.2,7.3l-2.8,5.8c-0.1,0.1-0.1,0.2-0.1,0.2
	v0.1c-0.1,0.2-0.1,0.5,0,0.7l0,0c0.3,1.9,1.9,3.4,3.9,3.3l0,0c1,0,2-0.4,2.7-1.1c0.6-0.6,1-1.4,1.1-2.2l0,0c0.1-0.2,0.1-0.5,0-0.8
	l0,0c0-0.1-0.1-0.2-0.2-0.3L5.1,8.3l2.8,0.1c0.2,1,1.3,1.7,2.3,1.5c0.5-0.1,1-0.5,1.3-0.9l2.9,0.2l-2.4,5.1c-0.1,0.2-0.1,0.5,0,0.7
	c0.2,2.1,2.1,3.7,4.2,3.5c1.9-0.2,3.3-1.6,3.5-3.5l0,0C19.8,14.8,19.8,14.5,19.7,14.3z M4.2,15.9c-0.6,0-1.3-0.3-1.7-0.7
	C2.3,15,2.1,14.8,2,14.5h4.4c-0.1,0.3-0.3,0.5-0.5,0.8C5.4,15.7,4.8,15.9,4.2,15.9z M2.2,12.9L4,9.2l2.1,3.7H2.2z M9.8,8.5
	c-0.3,0-0.5-0.2-0.5-0.5l0,0c0-0.2,0.2-0.5,0.4-0.5c0,0,0,0,0,0c0.3,0,0.5,0.2,0.5,0.5l0,0C10.3,8.3,10.1,8.5,9.8,8.5z M15.6,10.2
	l2.1,3.7h-3.9L15.6,10.2z M15.8,17c-1,0-1.9-0.7-2.3-1.6h4.5C17.8,16.4,16.9,17,15.8,17z"/>
		</symbol>
		<symbol viewBox="0 0 20 20" id="logout-new">
			<path d="M8.8,18c0,0.4-0.3,0.7-0.8,0.8H5c-3.3,0-3.8-1.7-3.8-2.8V4C1.1,2.6,2.1,1.4,3.5,1.3c0.2,0,0.4,0,0.5,0h4
			c0.4,0,0.7,0.3,0.8,0.8c0,0.4-0.3,0.7-0.8,0.8H4C3.1,2.8,2.8,3.1,2.8,4v12c0,0.4,0,1.2,2.3,1.2h3C8.4,17.3,8.8,17.6,8.8,18z
			 M18.5,9.5l-4-4c-0.3-0.3-0.8-0.3-1.1,0c-0.3,0.3-0.3,0.7,0,1l2.7,2.7H8c-0.4,0-0.7,0.3-0.7,0.8s0.3,0.8,0.7,0.8h8.2l-2.7,2.7
			c-0.3,0.3-0.3,0.8,0,1.1c0.3,0.3,0.8,0.3,1.1,0l4-4C18.8,10.2,18.8,9.8,18.5,9.5z"/>
		</symbol>
	</defs>
	<symbol viewBox="0 0 20 20" id="export-new">
		<path d="M18.8,12v3c0,3.3-1.7,3.7-2.8,3.7H4c-1.4,0.1-2.6-0.8-2.8-2.2c0-0.2,0-0.4,0-0.5v-4c0-0.4,0.3-0.7,0.8-0.8
			c0.4,0,0.7,0.3,0.8,0.8v4c0,0.9,0.3,1.2,1.3,1.2h12c0.4,0,1.2,0,1.2-2.2v-3c0-0.4,0.3-0.8,0.8-0.8S18.8,11.6,18.8,12z M6.5,6.5
			l2.7-2.7V12c0,0.4,0.3,0.8,0.8,0.8s0.8-0.3,0.8-0.8V3.8l2.7,2.7c0.3,0.3,0.8,0.3,1.1,0c0.3-0.3,0.3-0.8,0-1.1l-4-4
			c-0.3-0.3-0.8-0.3-1.1,0l-4,4c-0.3,0.3-0.3,0.8,0,1.1C5.8,6.8,6.2,6.8,6.5,6.5z"/>
	</symbol>
	<symbol viewBox="0 0 20 20" id="download-new">
		<path d="M18.8,12v3c0,3.3-1.7,3.7-2.8,3.7H4c-1.4,0.1-2.6-0.8-2.8-2.2c0-0.2,0-0.4,0-0.5v-4c0-0.4,0.3-0.7,0.8-0.8
			c0.4,0,0.7,0.3,0.8,0.8v4c0,0.9,0.3,1.2,1.3,1.2h12c0.4,0,1.2,0,1.2-2.2v-3c0-0.4,0.3-0.8,0.8-0.8S18.8,11.6,18.8,12z M9.5,12.5
			c0.3,0.3,0.8,0.3,1.1,0l4-4c0.3-0.3,0.3-0.8,0-1.1c-0.3-0.3-0.7-0.3-1,0l-2.7,2.7V2c0-0.4-0.3-0.8-0.8-0.8S9.3,1.6,9.3,2v8.2
			L6.5,7.5c-0.3-0.3-0.8-0.3-1.1,0c-0.3,0.3-0.3,0.7,0,1L9.5,12.5z"/>
	</symbol>
</defs>
</svg>